<?xml version="1.0" encoding="utf-8"?>
<!-- Generator: Adobe Illustrator 23.0.2, SVG Export Plug-In . SVG Version: 6.00 Build 0)  -->
<svg version="1.1" id="圖層_1" xmlns="http://www.w3.org/2000/svg" xmlns:xlink="http://www.w3.org/1999/xlink" x="0px" y="0px"
	 viewBox="0 0 370.18 16.95" style="enable-background:new 0 0 370.18 16.95;" xml:space="preserve">
<style type="text/css">
	.st0{fill:#F2F2F2;}
	.st1{fill:#101010;}
	.st2{fill:#242424;}
	.st3{fill:#C3C3C3;}
	.st4{fill:#6A6A6A;}
	.st5{fill:#343434;}
	.st6{fill:#6B6B6B;}
	.st7{fill:#595959;}
	.st8{fill:#1C1C1C;}
	.st9{fill:#8B8B8B;}
	.st10{fill:#535353;}
	.st11{fill:#5F5F5F;}
	.st12{fill:#9A9A9A;}
	.st13{fill:#464646;}
	.st14{fill:#424242;}
	.st15{fill:#737373;}
	.st16{fill:#A6A6A6;}
	.st17{fill:#B1B1B1;}
	.st18{fill:#CBCBCB;}
	.st19{fill:#7A7A7A;}
	.st20{fill:#E9E9E9;}
	.st21{fill:#B0B0B0;}
	.st22{fill:#989898;}
	.st23{fill:#9F9F9F;}
	.st24{fill:#E0E0E0;}
	.st25{fill:#D7D7D7;}
	.st26{fill:#B9B9B9;}
</style>
<g>
	<path class="st0" d="M347.67,1.52c0.16,0.57,0.31,1.14,0.48,1.77c-0.5,0.11-0.99,0.22-1.75,0.39c0.7,0.73,1.24,1.14,2.01,1.2
		c1.93,0.16,3.87,0.29,5.8,0.49c0.82,0.08,1.62,0.37,2.44,0.45c0.79,0.08,1.69-0.21,2.38,0.06c1.68,0.68,3.64,0.18,5.21,1.35
		c0.31,0.23,0.93,0.03,0.95,0.03c0.78,0.56,1.29,0.92,1.82,1.3c-0.59,1.06-1.37,1.64-2.6,2.02c-0.72,0.05-1.89-0.16-2.71,0.28
		c-0.94,0.51-2.11-0.31-2.84,0.72c-0.05,0.08-0.31,0.01-0.47,0.01c-3.3-0.02-6.56,0.79-9.88,0.49c-1.03-0.09-2.08,0.05-3.12-0.03
		c-4.19-0.33-8.3,0.75-12.38,0.48c-0.31,0.33-0.53,0.56-0.69,0.74c-0.33,1.03,1.38,2.07-0.41,3.11c-0.43,0-1.13-0.03-1.83,0
		c-16.56,0.92-33.13,0.36-49.7,0.46c-16.63,0.09-33.27,0.02-49.9,0.02c-16.71,0-33.43,0-50.14,0c-16.63,0-33.27,0-49.9,0
		s-33.27,0-49.9,0c-4.4,0-8.8,0-13.19,0s-8.8,0.08-13.19-0.02c-4.33-0.1-8.66-0.38-13.23-0.6c-0.16-0.35-0.4-0.89-0.63-1.42
		c0.51-0.3,0.86-0.5,1.19-0.69c-0.12-0.29-0.14-0.49-0.25-0.56c-0.82-0.52-1.6-1.27-2.5-1.45c-1.23-0.25-2.55-0.06-3.83-0.06
		c-2.48,0-4.97-0.14-7.43,0.04c-1.99,0.14-3.84-0.63-5.8-0.54c-1.92,0.09-3.88,0.28-5.74-0.06c-1.71-0.31-3.42-0.17-5.08-0.47
		c-1.5-0.27-3.05-0.68-4.39-1.53C6.16,9.34,5.82,9.19,5.46,9c0-0.29,0-0.6,0-0.94c2.49-1.78,5.25-2.25,7.63-2.17
		c1.06,0.04,1.93-0.47,2.92-0.55c0.9-0.07,1.9,0.38,2.7-0.45c0.12-0.12,0.46,0,0.7-0.02c1.53-0.11,3.05-0.22,4.74-0.35
		c0-0.97,0-1.75,0-2.53c0.8,0,1.6,0,2.4,0c1.51,0,3.03-0.06,4.54,0.02c1.53,0.08,3.05,0.3,4.58,0.46c0,0.4,0,0.8,0,1.42
		c-0.91,0.31-1.98,0.49-2.84,1.02c-1.08,0.66-2.27,0.23-3.35,0.55c0,0.45,0,0.83,0,1.16c0.7,0.23,1.33,0.43,1.71,0.55
		c0.75-0.17,1.44-0.53,1.7-0.34c0.8,0.62,1.65,0.4,2.48,0.42c1.52,0.04,3.04-0.03,4.56,0.02c1.14,0.04,2.29-0.21,3.43,0.41
		c0.46,0.25,1.29-0.18,1.76-0.27c0.89,0.12,1.63,0.31,2.37,0.31c5.44,0.03,10.87,0.03,16.31,0c1.11-0.01,2.14,0.08,2.88,0.61
		c0.43,0.83,0.77,1.48,1.1,2.1c0.88,0.24,1.66,0.53,2.47,0.65c0.83,0.12,1.73-0.21,2.22,0.45c0.69-0.17,1.27-0.53,1.68-0.39
		c1.58,0.54,3.11,0.6,4.66-0.03c0.14-0.06,0.35-0.06,0.47,0c1.71,0.88,3.55,0.35,5.32,0.45c0.49,0.03,0.99-0.27,1.67-0.47
		c0.64,1.06,1.76,0.47,2.73,0.47c64.45,0.03,128.9,0.03,193.35,0c1.61,0,3.29,0.44,4.85-0.44c0.18-0.1,0.56-0.12,0.7,0
		c1.05,0.89,2.28,0.36,3.41,0.44c1.27,0.09,2.55,0.04,3.83-0.03c0.24-0.01,0.46-0.35,0.68-0.53c0.88,0.82,1.94,0.82,2.7,0.42
		c0.64-0.33,1.19-0.3,1.79-0.32c1.78-0.05,3.59,0.2,5.62-0.73c0.57-0.71,1.37-1.72,2.1-2.64c2.6,0,5,0,7.4,0s4.81-0.13,7.19,0.04
		c2.38,0.17,4.64-0.66,7-0.54c2.07,0.11,4.16,0.03,6.24,0.02c1.7-0.01,3.42,0.18,5.03-0.68c0.28-0.75-0.05-1.3-0.54-1.61
		c-2.17-0.27-4.15-0.51-6.12-0.76c0-0.96,0-1.84,0-2.71c3.84,0,7.68,0,11.52,0c0.48,0,0.96,0,1.44,0
		C347.35,1.52,347.51,1.52,347.67,1.52z"/>
	<path class="st1" d="M143.19,0.08c29.12,0,58.24,0,87.36,0c0,0.61,0,1.23,0,1.83c-0.75,0.08-1.34,0.15-1.92,0.21
		c0,0.37,0,0.6,0,0.84c-0.25-0.14-0.5-0.29-0.62-0.35c-0.49,0.13-0.9,0.24-1.3,0.35c-2.4,0-4.8,0-7.2,0
		c-0.17-0.93-0.9-0.46-1.34-0.46c-8.95-0.03-17.9-0.02-26.84-0.02c-0.21,0-0.42,0.11-0.62,0.17c0,0.47,0,0.87,0,1.26
		c-2.63,0-5.27,0.06-7.9-0.02c-2.65-0.07-5.28,0-7.96-0.36c-3.21-0.44-6.54-0.23-9.8-0.07c-3.32,0.17-6.56-0.61-9.86-0.52
		c-1.01-0.67-2.35-0.67-3.36,0c-2.88,0-5.76,0-8.64,0C143.19,2,143.19,1.04,143.19,0.08z"/>
	<path class="st2" d="M92.31,0.56c13.76,0,27.52,0,41.28,0c0,0.46,0,0.91,0,1.44c1.35,0,2.53-0.02,3.72,0.01
		c1.16,0.02,2.34-0.11,3.48,0.08c0,0.39,0,0.63,0,0.87c-0.2,0.16-0.4,0.45-0.6,0.46c-1.72,0.04-3.44,0.02-5.16,0.02
		c0-0.29,0-0.57,0-0.96c-0.73,0-1.33,0-1.92,0c-0.19-0.16-0.36-0.42-0.57-0.46C132.1,1.96,131.64,2,131.19,2
		c-0.91,0.19-1.82,0.37-2.72,0.58c-0.08,0.02-0.11,0.25-0.16,0.38c-0.64,0-1.28,0-1.92,0c0-0.29,0-0.58,0-0.96
		c-2.02,0-3.89,0-5.76,0c-2.88,0-5.76,0-8.64,0c-2.88,0-5.76,0-8.64,0c-2.4,0-4.8,0-7.2,0c-0.36,0.07-0.92-0.24-0.96,0.48
		c-0.8,0-1.6,0-2.4,0c-0.11-0.35-0.23-0.69-0.32-1.04C92.4,1.15,92.36,0.86,92.31,0.56z"/>
	<path class="st3" d="M303.03,2c0.16,0,0.32,0,0.48,0c0,0.29,0,0.57,0,0.96c0.89,0,1.65,0,2.4,0c0.77,0,1.54-0.03,2.3,0.02
		c0.2,0.01,0.39,0.3,0.58,0.46c-0.16,0.92-0.87,0.42-1.31,0.46c-0.96,0.07-1.96-0.05-2.53,0.98c-3.84,0-7.68,0-11.52,0
		c-1.27,0-2.54-0.04-3.81,0.02c-0.5,0.03-0.98,0.3-1.47,0.46c0-0.3,0-0.59,0-0.91c-1.5,0-2.84,0-4.26,0c0,0.74,0,1.44,0,2.05
		c-0.31,0.31-0.54,0.54-0.78,0.78c-1.34,0-2.79-0.31-4.02,0.09c-1.25,0.41-2.44,0.34-3.67,0.38c-1.36,0.05-2.72,0.01-4.07,0.01
		c0-0.32,0-0.64,0-0.96c0.32,0,0.64,0,0.96,0c2.73-0.16,5.53,0.51,8.2-0.74c0.14-0.7,0.29-1.42,0.44-2.14
		c1.04-0.16,2.08-0.39,3.13-0.46c1.18-0.08,2.38-0.02,3.57-0.02c3.73,0,7.45,0,11.18,0c0.44,0,0.89-0.05,1.32-0.08
		c0-0.56,0-0.96,0-1.35c0.8,0,1.6,0,2.4,0C302.71,2,302.87,2,303.03,2z"/>
	<path class="st4" d="M236.31,0.08c13.92,0,27.84,0,41.76,0c0,0.28,0,0.56,0,0.96c0.4,0,0.68,0,0.96,0c0,0.16,0,0.32,0,0.48
		c-1.92,0-3.83,0-5.75,0c-1.92,0-3.83,0-5.75,0c-2,0-4.01-0.14-5.99,0.04c-1.91,0.18-3.69-0.56-5.55-0.52
		c-3.52,0.21-7.06-0.38-10.59,0.42c-1.52,0.34-3.18,0.06-4.77,0.06c-0.2-0.16-0.39-0.45-0.59-0.46c-1.24-0.04-2.48-0.02-3.73-0.02
		C236.31,0.72,236.31,0.4,236.31,0.08z"/>
	<path class="st5" d="M92.31,0.56c0.05,0.29,0.09,0.59,0.16,0.88c0.09,0.35,0.21,0.7,0.32,1.04c-5.28,0-10.56,0-15.84,0
		c-1.44,0-2.88,0-4.32,0c-0.11-0.35-0.23-0.69-0.32-1.04c-0.07-0.29-0.11-0.58-0.16-0.88C78.87,0.56,85.59,0.56,92.31,0.56z"/>
	<path class="st6" d="M35.67,2.48c-1.53-0.16-3.05-0.38-4.58-0.46C29.58,1.94,28.07,2,26.55,2c0-0.48,0-0.96,0-1.44
		c3.06,0.04,6.06-0.7,9.14-0.52c3.02,0.17,6.06,0.04,9.1,0.04c0,0.48,0,0.96,0,1.44c-0.95,0-1.91-0.05-2.85,0.02
		c-0.5,0.04-0.98,0.3-1.47,0.46C38.87,2.16,37.27,2.32,35.67,2.48z"/>
	<path class="st7" d="M44.79,1.52c0-0.48,0-0.96,0-1.44c3.27,0,6.55,0.09,9.82-0.03c2.68-0.09,5.27,0.84,7.94,0.51
		c-0.14,0.25-0.28,0.5-0.41,0.72C62.27,1.5,62.41,1.75,62.55,2C56.63,1.78,50.69,2.51,44.79,1.52z"/>
	<path class="st8" d="M236.31,1.04c1.24,0,2.49-0.02,3.73,0.02c0.2,0.01,0.4,0.3,0.59,0.46c-0.92,0.23-0.3,0.97-0.48,1.44
		c-0.32,0-0.64,0-0.96,0c-0.48-0.66-0.96-0.66-1.44,0c-1.24,0-2.49-0.02-3.73,0.02c-0.2,0.01-0.4,0.3-0.59,0.46
		c-1.63,0.14-3.15-0.85-4.8-0.48c0-0.24,0-0.48,0-0.84c0.58-0.06,1.17-0.13,1.92-0.21c0-0.6,0-1.21,0-1.83c1.44,0,2.88,0,4.32,0
		c0,0.28,0,0.57,0,0.96C235.44,1.04,235.88,1.04,236.31,1.04z"/>
	<path class="st5" d="M279.03,1.52c0-0.16,0-0.32,0-0.48c0-0.32,0-0.64,0-0.96c2.79,0,5.58,0,8.37,0c0.72,0,1.44-0.06,2.15,0.02
		c0.66,0.08,1.3,0.3,1.96,0.46c0,0.48,0,0.96,0,1.44c-4.16,0-8.32,0-12.48,0C279.03,1.84,279.03,1.68,279.03,1.52z"/>
	<path class="st9" d="M26.55,0.56c0,0.48,0,0.96,0,1.44c-0.8,0-1.6,0-2.4,0c-2.72,0-5.44,0-8.16,0c0-0.64,0-1.28,0-1.92
		c3.24,0,6.48,0,9.71,0.01C26.05,0.09,26.55-0.08,26.55,0.56z"/>
	<path class="st10" d="M304.95,1.52c0-0.24,0-0.48,0-0.74c0.05-0.04,0.1-0.1,0.16-0.14c0.06-0.04,0.14-0.08,0.2-0.08
		c4.52,0,9.03,0,13.55,0c0,0.48,0,0.96,0,1.44c-4.32,0-8.64,0-12.96,0C305.87,1.29,305.32,1.6,304.95,1.52z"/>
	<path class="st8" d="M140.79,2.96c0-0.24,0-0.48,0-0.87c-1.14-0.19-2.32-0.06-3.48-0.08C136.13,1.99,134.94,2,133.59,2
		c0-0.53,0-0.98,0-1.44c1.09-0.05,2.27,0.12,3.26-0.22c1.03-0.36,2-0.18,3-0.24c1.11-0.07,2.23-0.02,3.34-0.02c0,0.96,0,1.92,0,2.88
		c-0.16,0-0.32,0-0.48,0C142.07,2.96,141.43,2.96,140.79,2.96z"/>
	<path class="st9" d="M360.15,2c-1.59,0-3.2-0.13-4.78,0.03c-1.98,0.21-3.83-0.68-5.78-0.51c0-0.48,0-0.96,0-1.44
		c3.52,0,7.04,0,10.56,0C360.15,0.72,360.15,1.36,360.15,2z"/>
	<path class="st11" d="M318.87,2c0-0.48,0-0.96,0-1.44c4.48,0,8.96,0,13.44,0c0,0.32,0,0.64,0,0.96c-0.35,0.11-0.69,0.23-1.04,0.32
		c-0.29,0.07-0.58,0.11-0.88,0.16c-2.24,0-4.48,0-6.72,0c-0.8,0-1.6,0-2.4,0c-0.48,0-0.96,0-1.44,0C319.51,2,319.19,2,318.87,2z"/>
	<path class="st12" d="M15.99,0.08c0,0.64,0,1.28,0,1.92c-2.88,0-5.76,0-8.64,0c0-0.16,0-0.32,0-0.48c0-0.48,0-0.96,0-1.44
		C10.23,0.08,13.11,0.08,15.99,0.08z"/>
	<path class="st13" d="M62.55,2c-0.14-0.25-0.28-0.5-0.41-0.72c0.13-0.22,0.27-0.47,0.41-0.72c3.2,0,6.4,0,9.6,0
		c0.05,0.29,0.09,0.59,0.16,0.88c0.09,0.35,0.21,0.7,0.32,1.04c-1.85-0.16-3.69-0.37-5.54-0.46C65.58,1.94,64.07,2,62.55,2z"/>
	<path class="st14" d="M291.51,2c0-0.48,0-0.96,0-1.44c0.16,0,0.32,0.01,0.47,0c3.42-0.36,6.78,0.68,10.2,0.5
		c0.11-0.01,0.25,0.3,0.37,0.46c0,0.16,0,0.32,0,0.48c-0.8,0-1.6,0-2.4,0C297.27,2,294.39,2,291.51,2z"/>
	<path class="st15" d="M332.31,1.52c0-0.32,0-0.64,0-0.96c4.43,0,8.85,0,13.44,0c0,0.37,0,0.67,0,0.96c-3.84,0-7.68,0-11.52,0
		C333.59,1.52,332.95,1.52,332.31,1.52z"/>
	<path class="st16" d="M360.15,2c0-0.64,0-1.28,0-1.92c1.73-0.37,3.32,0.61,5.04,0.5c1.64-0.1,3.3-0.02,4.98,0.32
		c-0.46,0.05-0.92,0.12-1.37,0.14c-0.55,0.02-1.11,0.01-1.67,0.01c-0.34,0.32-0.68,0.65-1,0.96C364.12,2,362.14,2,360.15,2z"/>
	<path class="st17" d="M7.35,0.08c0,0.48,0,0.96,0,1.44c-1.44,0-2.88,0-4.32,0c-0.2-0.16-0.39-0.44-0.6-0.46
		C1.68,1.01,0.92,1.04,0,1.04c0.21-0.28,0.26-0.38,0.3-0.38c1.24-0.04,2.49-0.02,3.72-0.11C5.14,0.46,6.24,0.24,7.35,0.08z"/>
	<path class="st18" d="M3.03,1.52c1.44,0,2.88,0,4.32,0c0,0.16,0,0.32,0,0.48C6.94,2.16,6.54,2.44,6.13,2.46
		C4.8,2.52,3.48,2.48,2.12,2.48c0-0.37,0-0.58,0-0.96C2.44,1.52,2.74,1.52,3.03,1.52z"/>
	<path class="st19" d="M304.95,1.52c0.36,0.07,0.92-0.24,0.96,0.48c0,0.32,0,0.64,0,0.96c-0.75,0-1.51,0-2.4,0c0-0.39,0-0.67,0-0.96
		C303.74,1.08,304.48,1.71,304.95,1.52z"/>
	<path class="st15" d="M349.59,0.08c0,0.48,0,0.96,0,1.44c-0.64,0-1.28,0-1.92,0c-0.16,0-0.32,0-0.48,0c0-0.16,0-0.32,0-0.48
		c0.28,0,0.56,0,0.96,0c0-0.4,0-0.68,0-0.96C348.63,0.08,349.11,0.08,349.59,0.08z"/>
	<path class="st10" d="M236.31,1.04c-0.44,0-0.87,0-1.44,0c0-0.39,0-0.68,0-0.96c0.48,0,0.96,0,1.44,0
		C236.31,0.4,236.31,0.72,236.31,1.04z"/>
	<circle class="st9" cx="347.67" cy="0.56" r="0.68"/>
	<path class="st14" d="M279.03,0.08c0,0.32,0,0.64,0,0.96c-0.28,0-0.56,0-0.96,0c0-0.4,0-0.68,0-0.96
		C278.39,0.08,278.71,0.08,279.03,0.08z"/>
	<path class="st19" d="M302.55,2c0-0.16,0-0.32,0-0.48c0.16,0.16,0.32,0.32,0.48,0.48C302.87,2,302.71,2,302.55,2z"/>
	<path class="st20" d="M332.31,1.52c0.64,0,1.28,0,1.92,0c0,0.88,0,1.76,0,2.71c1.97,0.24,3.95,0.49,6.12,0.76
		c0.49,0.31,0.82,0.86,0.54,1.61c-1.61,0.86-3.33,0.68-5.03,0.68c-2.08,0.01-4.16,0.09-6.24-0.02c-2.36-0.12-4.62,0.71-7,0.54
		c-2.39-0.17-4.79-0.04-7.19-0.04s-4.8,0-7.4,0c-0.73,0.91-1.53,1.92-2.1,2.64c-2.03,0.93-3.84,0.68-5.62,0.73
		c-0.6,0.02-1.15-0.01-1.79,0.32c-0.76,0.39-1.82,0.4-2.7-0.42c-0.22,0.18-0.44,0.52-0.68,0.53c-1.27,0.06-2.56,0.12-3.83,0.03
		c-1.14-0.08-2.36,0.45-3.41-0.44c-0.14-0.12-0.52-0.11-0.7,0c-1.55,0.88-3.24,0.44-4.85,0.44c-64.45,0.03-128.9,0.03-193.35,0
		c-0.97,0-2.09,0.58-2.73-0.47c-0.68,0.2-1.18,0.5-1.67,0.47c-1.78-0.09-3.61,0.44-5.32-0.45c-0.13-0.07-0.33-0.06-0.47,0
		c-1.55,0.63-3.08,0.58-4.66,0.03c-0.41-0.14-0.99,0.21-1.68,0.39c-0.49-0.65-1.4-0.33-2.22-0.45c-0.8-0.12-1.58-0.41-2.47-0.65
		c-0.32-0.62-0.66-1.27-1.1-2.1c-0.74-0.53-1.78-0.62-2.88-0.61c-5.44,0.04-10.87,0.03-16.31,0c-0.74,0-1.48-0.19-2.37-0.31
		c-0.47,0.09-1.3,0.52-1.76,0.27c-1.14-0.62-2.29-0.37-3.43-0.41c-1.52-0.05-3.04,0.01-4.56-0.02c-0.83-0.02-1.68,0.2-2.48-0.42
		c-0.26-0.2-0.95,0.17-1.7,0.34c-0.37-0.12-1.01-0.33-1.71-0.55c0-0.33,0-0.71,0-1.16c1.07-0.32,2.26,0.11,3.35-0.55
		c0.86-0.52,1.93-0.7,2.84-1.02c0-0.62,0-1.02,0-1.42c1.6-0.16,3.2-0.32,4.8-0.48c0,0.32,0,0.64,0,0.96
		C40.4,3.49,40.57,4,40.16,4.53c-0.54,0.7-0.06,1.31,0.56,1.8c5.97,0,11.97-0.02,17.96,0.02c0.9,0,1.79,0.23,2.74,0.36
		c0.15-0.11,0.39-0.29,0.74-0.55c0.72,1.04,1.78,0.81,2.58,0.51c0.53-0.2,1-0.33,1.53-0.34c1.91-0.01,3.81-0.01,5.85-0.01
		c0.6,0.95,1.19,1.9,1.72,2.74c0.73,0.38,1.38,0.73,2.08,1.1c1.54,0,3.14-0.01,4.74,0c0.47,0,0.95-0.02,1.4,0.1
		c1.93,0.49,1.92,0.5,4.21-0.07c0.3-0.07,0.78-0.17,0.92-0.01c0.81,0.85,1.81,0.44,2.7,0.44c64.76,0.02,129.52,0.02,194.28,0.02
		c0.56,0,1.13,0.06,1.68-0.02c0.51-0.07,0.99-0.3,1.27-0.39c0.62,0.17,1.03,0.36,1.45,0.4c0.72,0.06,1.44,0.08,2.16,0
		c0.66-0.08,1.3-0.42,1.96-0.44c1.76-0.06,3.52-0.02,5.28-0.02c0.45-0.67,1.55-0.47,1.76-1.64c0.18-0.98,1-1.83,2.14-2.2
		c1.97,0.09,3.97,0.27,5.98,0.49c3.4,0.36,6.72-0.6,10.12-0.51c3.75,0.1,7.5,0.02,11.21,0.02c0.27-0.27,0.5-0.49,0.72-0.72
		c0-0.88,0-1.76,0-2.64c0.72-0.04,0.41-0.6,0.48-0.96c0.29-0.05,0.59-0.09,0.88-0.16C331.62,1.75,331.96,1.63,332.31,1.52z"/>
	<path class="st21" d="M142.71,2.96c0.16,0,0.32,0,0.48,0c2.88,0,5.76,0,8.64,0c1.01,0.67,2.35,0.67,3.36,0
		c3.3-0.09,6.54,0.68,9.86,0.52c3.26-0.17,6.59-0.37,9.8,0.07c2.67,0.36,5.31,0.29,7.96,0.36c2.63,0.07,5.27,0.02,7.9,0.02
		c3.54,0.34,7.03-0.51,10.56-0.48c0,0.24,0,0.48,0,0.72c0.85,0.55,1.76,0.75,2.79,0.74c6.59-0.04,13.18-0.02,19.77-0.02
		c0.08,0.79,0.7,0.46,1.09,0.46c4.11,0.02,8.23,0.02,12.35,0.02c1.27,0,2.55,0.11,3.79-0.04c0.77-0.09,1.48-0.6,2.22-0.91
		c0.07-0.03,0.16,0,0.24,0c0.2,0.16,0.39,0.45,0.59,0.46c1.08,0.05,2.17,0.02,3.25,0.02c0.16,0.16,0.32,0.32,0.48,0.48
		c-0.12,0.16-0.23,0.34-0.37,0.48c-0.18,0.18-0.39,0.32-0.59,0.48c-0.72,0.04-0.41,0.6-0.48,0.96c-0.05,0.13-0.11,0.39-0.16,0.38
		c-2.05-0.05-4.01,0.89-6.08,0.58c0-0.62,0-1.23,0-1.92c-3.35,0-6.54,0-9.72,0c-3.19,0-6.39,0-9.58,0c-3.27,0-6.55-0.07-9.82,0.02
		c-3.15,0.08-6.26-0.34-9.39-0.46c-4.23-0.17-8.46-0.08-12.7-0.03c-5.53,0.06-11.03,0.74-16.57,0.49c-0.48-0.02-0.98,0.3-1.51,0.47
		c-0.16-0.14-0.33-0.42-0.5-0.43c-1.91-0.05-3.82-0.05-5.73-0.06c-0.54,0-1,0.14-1.52,0.38c-0.66,0.31-1.78,0.4-2.31,0.03
		c-0.93-0.65-1.83-0.25-2.72-0.41c0-0.24,0-0.47,0-0.74c-0.8-0.12-1.42-1.2-2.59-0.35c0.43,0.33,0.79,0.6,1.15,0.88
		c0,0.22,0,0.45,0,0.69c-5.88,0-11.75,0.01-17.63-0.02c-0.38,0-1.01,0.33-1.09-0.46c0-0.16,0-0.32,0-0.48
		c1.67,0,3.36-0.13,5.02,0.03c1.75,0.17,3.29-0.79,5.01-0.49c0-0.41,0-0.63,0-0.78c-1.79-0.48-3.51-0.94-5.23-1.42
		C142.69,3.19,142.71,3.04,142.71,2.96z"/>
	<path class="st19" d="M223.83,4.88c-6.59,0-13.18-0.02-19.77,0.02c-1.03,0.01-1.94-0.19-2.79-0.74c0-0.24,0-0.48,0-0.72
		c5.72,0,11.43,0.01,17.15-0.02c0.38,0,1.01,0.33,1.09-0.46c2.4,0,4.8,0,7.2,0c-0.2,0.16-0.44,0.29-0.59,0.49
		c-0.22,0.27-0.37,0.58-0.57,0.9C225.06,4.71,224.15,3.86,223.83,4.88z"/>
	<path class="st22" d="M223.83,4.88c0.32-1.02,1.23-0.18,1.71-0.54c0.2-0.32,0.36-0.63,0.57-0.9c0.16-0.19,0.39-0.33,0.59-0.49
		c0.4-0.11,0.81-0.22,1.3-0.35c0.12,0.07,0.37,0.21,0.62,0.35c1.65-0.37,3.17,0.62,4.8,0.48c0,0.3,0,0.59,0,0.97
		c1.55-0.03,2.94,0.04,4.32-0.05c0-0.44,0-0.68,0-0.91c0.48,0,0.96,0,1.44,0c0.18,0.1,0.37,0.19,0.54,0.3
		c0.43,0.29,0.79,0.36,0.9-0.3c0.8,0,1.6,0,2.4,0c0.16,0.16,0.32,0.32,0.48,0.48c0,0.16,0,0.32,0,0.48c-0.08,0-0.17-0.02-0.24,0
		c-0.74,0.31-1.45,0.82-2.22,0.91c-1.25,0.15-2.53,0.04-3.79,0.04c-4.12,0-8.23,0.01-12.35-0.02
		C224.54,5.35,223.91,5.68,223.83,4.88z"/>
	<path class="st2" d="M219.51,2.96c-0.08,0.8-0.71,0.46-1.09,0.46c-5.72,0.02-11.43,0.02-17.15,0.02
		c-3.53-0.03-7.02,0.82-10.56,0.48c0-0.4,0-0.8,0-1.26c0.19-0.06,0.41-0.17,0.62-0.17c8.95-0.01,17.9-0.02,26.84,0.02
		C218.61,2.51,219.34,2.03,219.51,2.96z"/>
	<path class="st2" d="M155.19,2.96c-1.01,0.67-2.35,0.67-3.36,0C152.84,2.3,154.18,2.3,155.19,2.96z"/>
	<path class="st6" d="M103.35,2c2.88,0,5.76,0,8.64,0c0,0.29,0,0.59,0,1.04c3.02-0.47,5.78,0.75,8.64,0.4c0.96,0,1.92,0,2.88,0
		c0.12,0.16,0.24,0.45,0.37,0.46c0.79,0.04,1.59-0.01,2.37,0.04c0.21,0.02,0.41,0.3,0.61,0.46c-0.12,0.16-0.22,0.42-0.38,0.46
		c-1.33,0.36-2.66,0.65-4.06,0.51c-0.34-0.03-0.84-0.18-0.84,0.47c-0.64,0-1.28,0-1.92,0c-0.16,0-0.32,0-0.48,0c0-0.45,0-0.9,0-1.35
		c-2.43-0.34-4.73-0.07-7.04-0.45c-2.39-0.39-4.87-0.94-7.36-0.6c-0.44,0-0.87,0-1.44,0c0-0.39,0-0.68,0-0.96
		C103.35,2.32,103.35,2.16,103.35,2z"/>
	<path class="st22" d="M142.71,2.96c0,0.08-0.02,0.22,0,0.23c1.72,0.47,3.44,0.94,5.23,1.42c0,0.15,0,0.37,0,0.78
		c-1.73-0.31-3.26,0.66-5.01,0.49c-1.66-0.16-3.34-0.03-5.02-0.03c-0.61-0.65-1.31-0.65-1.92,0c-0.32,0-0.64,0-0.96,0
		s-0.64,0-0.96,0c0-0.32,0-0.64,0-0.96s0-0.64,0-0.96c0.36-0.07,0.92,0.24,0.96-0.48c1.72,0,3.44,0.02,5.16-0.02
		c0.2,0,0.4-0.3,0.6-0.46C141.43,2.96,142.07,2.96,142.71,2.96z"/>
	<path class="st23" d="M76.95,2.48c5.28,0,10.56,0,15.84,0c0.8,0,1.6,0,2.4,0c0,0.16,0,0.32,0,0.48c-0.23,0.92-0.97,0.3-1.44,0.48
		c-0.32,0-0.64,0-0.96,0c-0.98,0.04-2.01-0.23-2.88,0.48c-1.28,0-2.56,0-3.84,0c-0.29-0.05-0.59-0.09-0.88-0.16
		c-0.35-0.09-0.7-0.21-1.04-0.32c-1.76,0-3.52,0-5.28,0c-0.32,0-0.64,0-0.96,0s-0.64,0-0.96,0C76.95,3.12,76.95,2.8,76.95,2.48z"/>
	<path class="st7" d="M120.63,3.44c-2.86,0.35-5.62-0.87-8.64-0.4c0-0.46,0-0.75,0-1.04c2.88,0,5.76,0,8.64,0
		C120.63,2.48,120.63,2.96,120.63,3.44z"/>
	<path class="st13" d="M120.63,3.44c0-0.48,0-0.96,0-1.44c1.87,0,3.74,0,5.76,0c0,0.38,0,0.67,0,0.96c-0.77,0-1.54-0.03-2.3,0.02
		c-0.2,0.01-0.39,0.3-0.58,0.46C122.55,3.44,121.59,3.44,120.63,3.44z"/>
	<path class="st7" d="M103.35,2c0,0.16,0,0.32,0,0.48c-0.49,0.16-0.96,0.4-1.46,0.46c-0.62,0.08-1.26,0.02-1.9,0.02
		c-0.48,0-0.96,0-1.44,0c-0.8,0-1.6,0-2.4,0c0-0.32,0-0.64,0-0.96C98.55,2,100.95,2,103.35,2z"/>
	<path class="st7" d="M123.51,3.44c0.19-0.16,0.38-0.44,0.58-0.46c0.76-0.05,1.53-0.02,2.3-0.02c0.64,0,1.28,0,1.92,0
		c0.07,0.36-0.24,0.92,0.48,0.96c0,0.16,0,0.32,0,0.48c-0.64,0-1.28,0-1.92,0c-0.2-0.16-0.4-0.44-0.61-0.46
		c-0.79-0.06-1.58,0-2.37-0.04C123.75,3.9,123.64,3.6,123.51,3.44z"/>
	<path class="st13" d="M128.79,3.92c-0.72-0.04-0.41-0.6-0.48-0.96c0.05-0.13,0.08-0.36,0.16-0.38c0.9-0.21,1.81-0.39,2.72-0.58
		c0,0.48,0,0.96,0,1.44c0,0.16,0,0.32,0,0.48C130.39,3.92,129.59,3.92,128.79,3.92z"/>
	<path class="st13" d="M135.03,3.44c-0.04,0.72-0.6,0.41-0.96,0.48c-0.36-0.07-0.92,0.24-0.96-0.48c0-0.32,0-0.64,0-0.96
		c0.59,0,1.19,0,1.92,0C135.03,2.87,135.03,3.16,135.03,3.44z"/>
	<path class="st5" d="M133.11,2.48c0,0.32,0,0.64,0,0.96c-0.64,0-1.28,0-1.92,0c0-0.48,0-0.96,0-1.44c0.45,0,0.91-0.05,1.35,0.02
		C132.75,2.06,132.92,2.32,133.11,2.48z"/>
	<path class="st4" d="M96.15,2c0,0.32,0,0.64,0,0.96c-0.32,0-0.64,0-0.96,0c0-0.16,0-0.32,0-0.48C95.23,1.77,95.79,2.08,96.15,2z"/>
	<path class="st24" d="M78.87,3.44c1.76,0,3.52,0,5.28,0c0,0.29,0,0.59,0,1.04c-1.23,0-2.3,0-3.2,0c-0.19,1.3-0.35,2.42-0.52,3.64
		c0.11,0.11,0.33,0.33,0.56,0.56c0.88,0.18,1.87-0.23,2.63,0.53c2.52-0.02,5.05-0.05,7.57-0.09c0.06,0,0.11-0.25,0.17-0.39
		c3.57,0,7.14,0.06,10.71-0.02c3.51-0.08,7.01-0.3,10.52-0.47c0.13-0.01,0.25-0.15,0.37-0.24c0-0.24,0-0.48,0-0.71
		c0.69,0.06,1.35-0.03,1.92-0.48c0.96,0,1.92,0,2.88,0c0,0.3,0,0.59,0,0.96c2.79,0,5.4,0.01,8.02-0.02c0.21,0,0.41-0.3,0.62-0.46
		c1.92,0,3.84,0,5.76,0c0.23,0.92,0.97,0.3,1.44,0.48c0.16-0.16,0.32-0.32,0.48-0.48c0.36,0.07,0.92-0.24,0.96,0.48
		c-0.15,0.07-0.3,0.15-0.95,0.48c1.33,0,2.1,0,2.87,0c1.92,0,3.85-0.14,5.76,0.04c1.99,0.18,3.84-0.57,5.8-0.54
		c4.64,0.07,9.28-0.06,13.92,0.05c4.57,0.1,9.14-0.15,13.73,0.35c3.96,0.43,8.01,0.16,12.04-0.29c3.4-0.38,6.87-0.15,10.31-0.06
		c3.38,0.08,6.76-0.36,10.13,0.42c1.22,0.28,2.55,0.11,3.83,0.03c1.3-0.08,2.58-0.39,3.88-0.44c1.92-0.08,3.84-0.02,5.76-0.02
		c1.84,0,3.69,0.13,5.52-0.04c1.91-0.18,3.69,0.56,5.56,0.53c2.32-0.05,4.64-0.01,6.96-0.01c2.07,0.31,4.03-0.62,6.08-0.58
		c0.05,0,0.11-0.25,0.16-0.38c0.32,0,0.64,0,0.96,0c0.48,0.16,0.96,0.42,1.45,0.46c1.02,0.07,2.04,0.02,3.06,0.02
		c0.71,0,1.41,0.01,2.12,0c0.67-0.01,1.35-0.06,2.01-0.09c0-0.4,0-0.64,0-0.87c0.16-0.16,0.32-0.32,0.48-0.48
		c1.04-0.34,1.89,0.48,2.88,0.48c0,0.29,0,0.59,0,1.03c1.17,0,2.27-0.26,3.17,0.06c1.76,0.62,3.51,0.86,5.36,0.84
		c4.52-0.04,9.03-0.01,13.55-0.01c0,0.65,0.5,0.45,0.85,0.48c2.57,0.2,5.1-0.26,7.64-0.44c1.08-0.08,2.11-0.13,2.87-0.64
		c0.23-1.18,0.44-2.21,0.64-3.23c3.84,0,7.68,0,11.52,0c0,0.08,0,0.23,0,0.23c1.39,0.06,2.82,0.31,4.17,0.1
		c1.79-0.28,1.76-0.39,4.22,0.11c0.77,0.16,1.81,0.34,2.34-0.03c0.86-0.62,1.86-0.02,2.44-0.48c0.83-0.66,1.68-0.19,2.49-0.47
		c0.21-0.21,0.44-0.43,0.66-0.66c0-0.56,0-1.12,0-1.68c0.8,0,1.6,0,2.4,0c0,0.29,0,0.58,0,0.96c2.18,0,4.21,0,6.24,0
		c0,0.88,0,1.76,0,2.64c-0.23,0.22-0.45,0.45-0.72,0.72c-3.71,0-7.46,0.08-11.21-0.02c-3.39-0.09-6.72,0.87-10.12,0.51
		c-2.01-0.21-4.01-0.4-5.98-0.49c-1.14,0.38-1.96,1.23-2.14,2.2c-0.21,1.17-1.31,0.98-1.76,1.64c-1.76,0-3.52-0.04-5.28,0.02
		c-0.66,0.02-1.3,0.36-1.96,0.44c-0.71,0.08-1.44,0.06-2.16,0c-0.42-0.03-0.84-0.22-1.45-0.4c-0.28,0.09-0.76,0.32-1.27,0.39
		c-0.55,0.08-1.12,0.02-1.68,0.02c-64.76,0-129.52,0-194.28-0.02c-0.89,0-1.89,0.41-2.7-0.44c-0.15-0.15-0.62-0.06-0.92,0.01
		C84,10.76,84,10.76,82.08,10.26c-0.45-0.11-0.93-0.09-1.4-0.1c-1.6-0.01-3.2,0-4.74,0c-0.7-0.37-1.36-0.72-2.08-1.1
		c-0.53-0.84-1.12-1.79-1.72-2.74c-2.04,0-3.95-0.01-5.85,0.01c-0.53,0-1.01,0.14-1.53,0.34c-0.8,0.3-1.85,0.53-2.58-0.51
		c-0.35,0.26-0.59,0.44-0.74,0.55c-0.96-0.13-1.85-0.36-2.74-0.36c-5.99-0.03-11.99-0.02-17.96-0.02c-0.62-0.49-1.1-1.1-0.56-1.8
		C40.57,4,40.4,3.49,40.47,2.96c2.88,0,5.76,0,8.64,0c-0.17,0.66,0.2,1.2,0.69,1.36c0.93,0.3,1.92,0.43,2.89,0.55
		c1.22,0.15,2.48-0.26,3.66,0.45c0.31,0.18,0.93,0.02,1.33-0.17c0.98-0.45,1.99-0.48,2.9-0.03c0.87,0.42,1.63,0.14,2.44,0.17
		c0-0.41,0-0.65,0-0.89c0.48,0,0.96,0,1.44,0c0,0.3,0,0.59,0,0.96c4.39,0,8.6,0.01,12.82-0.02c0.21,0,0.41-0.3,0.62-0.46
		c0.28,0,0.57,0,0.96,0C78.87,4.32,78.87,3.88,78.87,3.44z"/>
	<path class="st18" d="M281.43,8.72c-4.52,0-9.03-0.03-13.55,0.01c-1.84,0.02-3.6-0.23-5.36-0.84c-0.9-0.32-2-0.06-3.17-0.06
		c0-0.44,0-0.74,0-1.03c1.24,0,2.49,0.02,3.73-0.02c0.2-0.01,0.4-0.3,0.59-0.46c0.96,0,1.92,0,2.88,0c0,0.23,0,0.47,0,0.82
		c0.86,0.29,1.67,0.78,2.71,0.64c0.69-0.09,1.39-0.02,2.09-0.02c1.36,0,2.72,0.04,4.07-0.01c1.22-0.04,2.41,0.03,3.67-0.38
		c1.23-0.4,2.68-0.09,4.02-0.09c0.24-0.25,0.47-0.47,0.78-0.78c0-0.61,0-1.31,0-2.05c1.42,0,2.75,0,4.26,0c0,0.32,0,0.62,0,0.91
		c-0.06,0.82,0.31,1.76-0.64,2.32c-1.99,0.2-3.92,0.74-5.92,0.65C281.55,8.33,281.49,8.59,281.43,8.72z"/>
	<path class="st12" d="M291.51,2c2.88,0,5.76,0,8.64,0c0,0.4,0,0.79,0,1.35c-0.43,0.03-0.87,0.08-1.32,0.08
		c-3.73,0.01-7.45,0-11.18,0c-1.19,0-2.38-0.06-3.57,0.02c-1.05,0.07-2.09,0.3-3.13,0.46c-0.57-0.16-1.13-0.39-1.7-0.46
		c-0.7-0.08-1.42-0.02-2.14-0.02c-0.29,0.05-0.59,0.04-0.86,0.15c-1.18,0.49-1.62,0.47-2.5-0.15c0-0.48,0-0.96,0-1.44
		c1.76,0,3.52,0,5.28,0C283.19,2,287.35,2,291.51,2z"/>
	<path class="st25" d="M321.27,2c0,0.56,0,1.12,0,1.68c-0.23,0.23-0.45,0.45-0.66,0.66c-0.81,0.28-1.66-0.19-2.49,0.47
		c-0.58,0.46-1.59-0.14-2.44,0.48c-0.52,0.38-1.57,0.19-2.34,0.03c-2.46-0.5-2.43-0.39-4.22-0.11c-1.35,0.21-2.78-0.04-4.17-0.1
		c0,0,0-0.15,0-0.23c0.57-1.04,1.56-0.91,2.53-0.98c0.44-0.03,1.16,0.47,1.31-0.46c3.69-0.07,7.41,0.33,11.04-0.69
		c0-0.28,0-0.51,0-0.75C320.31,2,320.79,2,321.27,2z"/>
	<path class="st25" d="M281.43,8.72c0.06-0.14,0.12-0.39,0.16-0.39c2,0.09,3.93-0.45,5.92-0.65c0.94-0.55,0.58-1.5,0.64-2.32
		c0.49-0.16,0.97-0.43,1.47-0.46c1.27-0.07,2.54-0.02,3.81-0.02c-0.21,1.03-0.41,2.06-0.64,3.23c-0.76,0.51-1.78,0.56-2.87,0.64
		c-2.55,0.18-5.07,0.64-7.64,0.44C281.93,9.17,281.44,9.38,281.43,8.72z"/>
	<path class="st16" d="M273.75,3.44c0.89,0.62,1.32,0.63,2.5,0.15c0.26-0.11,0.57-0.1,0.86-0.15c0,0.23,0,0.47,0,0.61
		c-0.81,0.63-1.57,1.21-2.27,1.75c-0.89,0.05-1.72,0.09-2.53,0.13c0,0.4,0,0.63,0,0.87c-0.32,0-0.64,0-0.96,0
		c-0.2-0.16-0.39-0.45-0.6-0.46c-1.4-0.04-2.8-0.02-4.2-0.02c-0.96,0-1.92,0-2.88,0c0-0.16,0-0.32,0-0.48s0-0.32,0-0.48
		c0.8,0,1.6,0,2.4,0c2.03,0.13,3.99-0.11,5.76-1.22c0-0.23,0-0.47,0-0.7C272.47,3.44,273.11,3.44,273.75,3.44z"/>
	<path class="st26" d="M272.31,6.8c0-0.23,0-0.47,0-0.87c0.81-0.04,1.64-0.09,2.53-0.13c0.7-0.54,1.46-1.12,2.27-1.75
		c0-0.14,0-0.37,0-0.61c0.71,0,1.43-0.06,2.14,0.02c0.58,0.07,1.14,0.3,1.7,0.46c-0.15,0.72-0.3,1.44-0.44,2.14
		C277.84,7.31,275.04,6.64,272.31,6.8z"/>
	<path class="st12" d="M319.83,2c0,0.24,0,0.47,0,0.75c-3.63,1.02-7.35,0.62-11.04,0.69c-0.19-0.16-0.38-0.44-0.58-0.46
		c-0.76-0.05-1.53-0.02-2.3-0.02c0-0.32,0-0.64,0-0.96c4.32,0,8.64,0,12.96,0C319.19,2,319.51,2,319.83,2z"/>
	<path class="st26" d="M266.55,6.32c1.4,0,2.8-0.02,4.2,0.02c0.2,0.01,0.4,0.3,0.6,0.46c0,0.32,0,0.64,0,0.96
		c-0.7,0-1.41-0.07-2.09,0.02c-1.03,0.14-1.85-0.35-2.71-0.64C266.55,6.79,266.55,6.56,266.55,6.32z"/>
	<path class="st5" d="M243.03,3.44c-0.8,0-1.6,0-2.4,0c-0.16-0.16-0.32-0.32-0.48-0.48c0.18-0.47-0.44-1.21,0.48-1.44
		c1.6,0,3.26,0.29,4.77-0.06c3.53-0.8,7.06-0.21,10.59-0.42c0,0.32,0,0.64,0,0.96c-1.12,0-2.24,0-3.36,0c-0.7,0-1.4-0.01-2.1,0
		c-0.74,0.01-1.49,0.05-2.22,0.08c0,0.41,0,0.64,0,0.88c-0.8,0-1.6,0-2.4,0c-0.06-0.14-0.1-0.38-0.17-0.39
		c-0.91-0.12-1.82-0.16-2.71,0.02C243.03,2.97,243.03,3.21,243.03,3.44z"/>
	<path class="st14" d="M255.99,2c0-0.32,0-0.64,0-0.96c1.87-0.04,3.64,0.7,5.55,0.52c1.98-0.18,3.99-0.04,5.99-0.04
		c1.92,0,3.83,0,5.75,0c1.92,0,3.83,0,5.75,0c0,0.16,0,0.32,0,0.48c-1.76,0-3.52,0-5.28,0c-1.28,0.16-2.56,0.45-3.84,0.44
		c-1.44-0.01-2.88-0.28-4.32-0.44c-0.48,0-0.96,0-1.44,0c-0.8,0-1.6,0-2.4,0C259.83,2,257.91,2,255.99,2z"/>
	<path class="st17" d="M49.11,2.96c-2.88,0-5.76,0-8.64,0c0-0.32,0-0.64,0-0.96c0.49-0.16,0.97-0.42,1.47-0.46
		c0.95-0.07,1.9-0.02,2.85-0.02C50.69,2.51,56.63,1.78,62.55,2c1.51,0,3.03-0.06,4.54,0.02c1.85,0.09,3.69,0.3,5.54,0.46
		c1.44,0,2.88,0,4.32,0c0,0.32,0,0.64,0,0.96c-0.2,0.16-0.4,0.46-0.6,0.46c-1.88,0.04-3.76,0.02-5.64,0.02
		c0-0.65-0.5-0.47-0.84-0.47c-2.76-0.01-5.52-0.01-8.28-0.01c-0.64,0-1.28,0-1.92,0c-0.2-0.16-0.39-0.45-0.59-0.46
		c-1.24-0.04-2.48-0.02-3.73-0.02c-0.88,0.19-1.88-0.42-2.67,0.46c-0.14,0.16-0.76,0.16-0.9,0C50.99,2.54,49.99,3.16,49.11,2.96z"/>
	<path class="st7" d="M237.75,3.44c0,0.24,0,0.48,0,0.91c-1.38,0.1-2.77,0.02-4.32,0.05c0-0.38,0-0.67,0-0.97
		c0.2-0.16,0.39-0.45,0.59-0.46c1.24-0.04,2.48-0.02,3.73-0.02C237.75,3.12,237.75,3.28,237.75,3.44z"/>
	<path class="st5" d="M237.75,3.44c0-0.16,0-0.32,0-0.48c0.48-0.66,0.96-0.66,1.44,0c0,0.16,0,0.32,0,0.48
		C238.71,3.44,238.23,3.44,237.75,3.44z"/>
	<path class="st7" d="M239.19,3.44c0-0.16,0-0.32,0-0.48c0.32,0,0.64,0,0.96,0c0.16,0.16,0.32,0.32,0.48,0.48
		c-0.12,0.66-0.47,0.58-0.9,0.3C239.56,3.63,239.37,3.54,239.19,3.44z"/>
	<path class="st3" d="M329.91,2.96c-2.03,0-4.06,0-6.24,0c0-0.38,0-0.67,0-0.96c2.24,0,4.48,0,6.72,0
		C330.32,2.37,330.63,2.92,329.91,2.96z"/>
	<path class="st18" d="M135.03,7.76c-0.04-0.72-0.6-0.41-0.96-0.48c-0.16,0.16-0.32,0.32-0.48,0.48c-0.47-0.18-1.21,0.44-1.44-0.48
		c0-0.48,0-0.96,0-1.44c0.64,0,1.28,0,1.92,0c0.32,0,0.64,0,0.96,0c0.04,0.32,0.08,0.63,0.12,0.94c0.35-0.2,0.59-0.33,0.84-0.46
		c0.64,0,1.28,0,1.92,0c0.08,0.8,0.71,0.46,1.09,0.46c5.88,0.02,11.75,0.02,17.63,0.02c0.47-0.18,1.21,0.44,1.44-0.48
		c0.89,0.17,1.79-0.24,2.72,0.41c0.53,0.37,1.65,0.28,2.31-0.03c0.52-0.24,0.98-0.38,1.52-0.38c1.91,0.01,3.82,0.01,5.73,0.06
		c0.18,0,0.35,0.29,0.5,0.43c0.53-0.17,1.03-0.49,1.51-0.47c5.54,0.25,11.05-0.43,16.57-0.49c4.23-0.05,8.47-0.13,12.7,0.03
		c3.13,0.12,6.24,0.54,9.39,0.46c3.27-0.09,6.55-0.02,9.82-0.02c3.19,0,6.39,0,9.58,0c3.18,0,6.37,0,9.72,0c0,0.69,0,1.3,0,1.92
		c-2.32,0-4.64-0.03-6.96,0.01c-1.88,0.04-3.65-0.7-5.56-0.53c-1.82,0.17-3.68,0.04-5.52,0.04c-1.92,0-3.84-0.06-5.76,0.02
		c-1.3,0.05-2.58,0.36-3.88,0.44c-1.27,0.08-2.61,0.25-3.83-0.03c-3.37-0.77-6.76-0.33-10.13-0.42c-3.44-0.09-6.91-0.32-10.31,0.06
		c-4.03,0.46-8.08,0.72-12.04,0.29c-4.6-0.5-9.16-0.24-13.73-0.35c-4.64-0.11-9.28,0.03-13.92-0.05c-1.96-0.03-3.81,0.73-5.8,0.54
		c-1.9-0.18-3.84-0.04-5.76-0.04c-0.19-0.16-0.36-0.42-0.57-0.46C135.94,7.72,135.48,7.76,135.03,7.76z"/>
	<path class="st9" d="M247.83,5.36c-0.16-0.16-0.32-0.32-0.48-0.48c0.45,0,0.91,0,1.31,0c0.15-0.43,0.24-0.71,0.33-0.96
		c0.78,0,1.49,0,2.21,0c0,0.48,0,0.96,0,1.44c-0.8,0.16-1.6,0.32-2.4,0.48C248.75,5.13,248.2,5.44,247.83,5.36z"/>
	<path class="st9" d="M243.51,4.4c0-0.16,0-0.32,0-0.48c0.8,0,1.6,0,2.4,0c0.44,0,0.87,0,1.44,0c0,0.39,0,0.68,0,0.96
		c-1.08,0-2.17,0.02-3.25-0.02C243.9,4.85,243.71,4.56,243.51,4.4z"/>
	<path class="st16" d="M158.07,6.32c-0.23,0.92-0.97,0.3-1.44,0.48c0-0.24,0-0.47,0-0.69c-0.37-0.28-0.72-0.55-1.15-0.88
		c1.18-0.85,1.79,0.23,2.59,0.35C158.07,5.85,158.07,6.09,158.07,6.32z"/>
	<path class="st16" d="M137.91,6.32c-0.64,0-1.28,0-1.92,0c0-0.16,0-0.32,0-0.48c0.61-0.65,1.31-0.65,1.92,0
		C137.91,6,137.91,6.16,137.91,6.32z"/>
	<path class="st16" d="M247.83,5.36c0.36,0.07,0.92-0.24,0.96,0.48c-0.04,0.72-0.6,0.41-0.96,0.48c-0.32,0-0.64,0-0.96,0
		c0.2-0.16,0.41-0.31,0.59-0.48C247.61,5.7,247.71,5.52,247.83,5.36z"/>
	<path class="st26" d="M246.87,6.32c0.32,0,0.64,0,0.96,0c-0.16,0.32-0.32,0.64-0.48,0.96c-0.32,0-0.64,0-0.96,0
		C246.46,6.92,246.15,6.37,246.87,6.32z"/>
	<path class="st13" d="M245.91,3.92c-0.8,0-1.6,0-2.4,0c-0.16-0.16-0.32-0.32-0.48-0.48c0-0.24,0-0.48,0-0.85
		c0.89-0.18,1.8-0.14,2.71-0.02c0.07,0.01,0.11,0.25,0.17,0.39C245.91,3.28,245.91,3.6,245.91,3.92z"/>
	<path class="st21" d="M132.15,5.84c0,0.48,0,0.96,0,1.44c-1.92,0-3.84,0-5.76,0c-0.12-0.16-0.2-0.4-0.36-0.47
		c-1.42-0.64-2.94-0.47-4.44-0.49c0-0.16,0-0.32,0-0.48c0-0.65,0.51-0.5,0.84-0.47c1.4,0.14,2.73-0.15,4.06-0.51
		c0.16-0.04,0.25-0.3,0.38-0.46c0.64,0,1.28,0,1.92,0c0,0.29,0,0.58,0,0.96c1.22,0,2.29,0,3.36,0
		C132.15,5.52,132.15,5.68,132.15,5.84z"/>
	<path class="st23" d="M99.99,2.96c0.63,0,1.27,0.06,1.9-0.02c0.5-0.06,0.98-0.3,1.46-0.46c0,0.28,0,0.57,0,0.96c0.57,0,1,0,1.44,0
		c0,0.29,0,0.59,0,0.8c2.53,0.47,4.9,0.82,7.31,0.65c0.12-0.01,0.26,0.14,0.37,0.24c0.04,0.04,0.01,0.15,0.01,0.23
		c0,0.64-0.49,0.47-0.84,0.47c-2.12,0.01-4.24,0.01-6.36,0.01c-0.2-0.16-0.4-0.45-0.61-0.46c-1.01-0.05-2.03-0.02-2.8-0.02
		c-0.75-0.5-1.31-0.87-1.87-1.25C99.99,3.75,99.99,3.36,99.99,2.96z"/>
	<path class="st9" d="M112.47,5.36c0-0.08,0.03-0.19-0.01-0.23c-0.11-0.1-0.25-0.25-0.37-0.24c-2.41,0.18-4.78-0.18-7.31-0.65
		c0-0.22,0-0.51,0-0.8c2.49-0.33,4.97,0.22,7.36,0.6c2.32,0.37,4.61,0.11,7.04,0.45c0,0.45,0,0.9,0,1.35c-1.44,0-2.88,0-4.32,0
		c-0.19-0.16-0.37-0.44-0.58-0.46C113.69,5.32,113.08,5.36,112.47,5.36z"/>
	<path class="st16" d="M114.87,5.84c1.44,0,2.88,0,4.32,0c0.16,0,0.32,0,0.48,0c0,0.16,0,0.32,0,0.48
		c-0.29,0.05-0.59,0.09-0.88,0.16c-0.35,0.09-0.7,0.21-1.04,0.32c-0.96,0-1.92,0-2.88,0C114.87,6.48,114.87,6.16,114.87,5.84z"/>
	<ellipse class="st9" cx="120.63" cy="6.08" rx="1.36" ry="0.34"/>
	<path class="st7" d="M131.19,3.44c0.64,0,1.28,0,1.92,0c0.04,0.72,0.6,0.41,0.96,0.48c0,0.32,0,0.64,0,0.96c-0.64,0-1.28,0-1.92,0
		c0-0.28,0-0.56,0-0.96c-0.4,0-0.68,0-0.96,0C131.19,3.76,131.19,3.6,131.19,3.44z"/>
	<path class="st16" d="M132.15,4.88c0.64,0,1.28,0,1.92,0c0,0.32,0,0.64,0,0.96c-0.64,0-1.28,0-1.92,0c0-0.16,0-0.32,0-0.48
		S132.15,5.04,132.15,4.88z"/>
	<path class="st21" d="M135.99,5.84c0,0.16,0,0.32,0,0.48c-0.24,0.13-0.48,0.27-0.84,0.46c-0.04-0.31-0.08-0.62-0.12-0.94
		C135.35,5.84,135.67,5.84,135.99,5.84z"/>
	<path class="st18" d="M112.95,7.28c0,0.24,0,0.48,0,0.71c-0.12,0.08-0.24,0.23-0.37,0.24c-3.5,0.17-7.01,0.39-10.52,0.47
		c-3.57,0.08-7.14,0.02-10.71,0.02c-0.16-0.93-0.88-0.44-1.32-0.45c-1.46-0.04-2.75-0.49-3.96-1.06c0-1.23,0-2.26,0-3.28
		c1.28,0,2.56,0,3.84,0c0,0.93,0,1.87,0,2.64c0.32,0.32,0.49,0.49,0.72,0.72c1.12,0,2.41-0.31,3.46,0.07
		c1.94,0.69,3.86,0.25,5.77,0.39c0.19,0.01,0.41-0.3,0.61-0.46c0.48,0,0.96,0,1.44,0c0.04,0.72,0.6,0.41,0.96,0.48
		c1.03,0,2.06,0,3.2,0c0.25-0.3,0.55-0.66,0.89-1.08C108.98,6.89,110.97,7.09,112.95,7.28z"/>
	<path class="st25" d="M86.07,3.92c0,1.03,0,2.05,0,3.28c1.21,0.57,2.51,1.02,3.96,1.06c0.44,0.01,1.16-0.47,1.32,0.45
		c-0.06,0.14-0.11,0.39-0.17,0.39c-2.52,0.04-5.05,0.07-7.57,0.09c-0.76-0.76-1.76-0.35-2.63-0.53c-0.22-0.22-0.45-0.45-0.56-0.56
		c0.17-1.22,0.34-2.34,0.52-3.64c0.9,0,1.97,0,3.2,0c0-0.45,0-0.75,0-1.04c0.35,0.11,0.69,0.23,1.04,0.32
		C85.48,3.84,85.78,3.87,86.07,3.92z"/>
	<path class="st3" d="M100.47,7.28c-0.2,0.16-0.42,0.47-0.61,0.46c-1.92-0.14-3.84,0.3-5.77-0.39c-1.05-0.38-2.34-0.07-3.46-0.07
		c-0.23-0.23-0.4-0.4-0.72-0.72c0-0.77,0-1.71,0-2.64c0.87-0.71,1.9-0.44,2.88-0.48c0.19,0.93,0.37,1.85,0.55,2.76
		c1.28,0.31,2.46,0.84,3.77,0.6c0.48,0,0.96,0,1.44,0c0.45,0,0.91-0.05,1.35,0.02C100.11,6.86,100.28,7.12,100.47,7.28z"/>
	<path class="st25" d="M70.71,3.92c1.88,0,3.76,0.01,5.64-0.02c0.2,0,0.4-0.3,0.6-0.46c0.32,0,0.64,0,0.96,0c0,0.48,0,0.96,0,1.44
		c-0.21,0.16-0.41,0.46-0.62,0.46c-4.22,0.03-8.44,0.02-12.82,0.02c0-0.37,0-0.66,0-0.96c1.88,0,3.76,0.01,5.64-0.02
		C70.31,4.38,70.51,4.08,70.71,3.92z"/>
	<path class="st17" d="M98.55,6.8c-0.48,0-0.96,0-1.44,0c0-0.24,0-0.47,0-0.87c-0.96-0.04-1.98-0.17-2.01-1.46
		c-0.51-0.08-0.94-0.14-1.35-0.2c0-0.37,0-0.6,0-0.84c0.47-0.18,1.21,0.44,1.44-0.48c0.32,0,0.64,0,0.96,0c0,0.44,0,0.88,0,1.44
		c0.87,0.17,1.63,0.33,2.4,0.48c0,0.16,0,0.32,0,0.48C98.55,5.84,98.55,6.32,98.55,6.8z"/>
	<path class="st26" d="M93.75,3.44c0,0.24,0,0.47,0,0.84c0.41,0.06,0.84,0.12,1.35,0.2c0.03,1.28,1.04,1.42,2.01,1.46
		c0,0.4,0,0.63,0,0.87c-1.31,0.24-2.49-0.3-3.77-0.6c-0.18-0.9-0.37-1.83-0.55-2.76C93.11,3.44,93.43,3.44,93.75,3.44z"/>
	<path class="st3" d="M77.91,4.88c0-0.48,0-0.96,0-1.44c0.32,0,0.64,0,0.96,0c0,0.44,0,0.87,0,1.44C78.48,4.88,78.2,4.88,77.91,4.88
		z"/>
	<path class="st16" d="M98.55,5.36c0-0.16,0-0.32,0-0.48c0-0.64,0-1.28,0-1.92c0.48,0,0.96,0,1.44,0c0,0.39,0,0.79,0,1.15
		c0.57,0.38,1.12,0.75,1.87,1.25c0.77,0,1.79-0.03,2.8,0.02c0.21,0.01,0.4,0.3,0.61,0.46C105.08,6,104.9,6.28,104.7,6.3
		c-0.6,0.06-1.22,0.02-1.82,0.02c-0.32,0-0.64,0-0.96,0C100.98,5.33,99.77,5.35,98.55,5.36z"/>
	<path class="st23" d="M98.55,2.96c0,0.64,0,1.28,0,1.92c-0.77-0.15-1.53-0.31-2.4-0.48c0-0.55,0-0.99,0-1.44
		C96.95,2.96,97.75,2.96,98.55,2.96z"/>
	<path class="st22" d="M132.15,4.88c0,0.16,0,0.32,0,0.48c-1.07,0-2.14,0-3.36,0c0-0.38,0-0.67,0-0.96c0-0.16,0-0.32,0-0.48
		c0.8,0,1.6,0,2.4,0c0.28,0,0.56,0,0.96,0C132.15,4.32,132.15,4.6,132.15,4.88z"/>
	<path class="st25" d="M49.11,2.96c0.88,0.19,1.88-0.42,2.67,0.46c0.14,0.16,0.76,0.16,0.9,0c0.79-0.88,1.79-0.27,2.67-0.46
		c0,0.3,0,0.59,0,0.96c1.34,0,2.53,0.02,3.71-0.02c0.21-0.01,0.41-0.3,0.61-0.46c0.64,0,1.28,0,1.92,0c0,0.28,0,0.57,0,0.96
		c0.57,0,1,0,1.44,0c0,0.24,0,0.48,0,0.89c-0.81-0.02-1.57,0.26-2.44-0.17c-0.91-0.44-1.92-0.42-2.9,0.03
		c-0.4,0.18-1.03,0.35-1.33,0.17c-1.18-0.72-2.45-0.31-3.66-0.45c-0.97-0.12-1.97-0.25-2.89-0.55C49.31,4.16,48.94,3.62,49.11,2.96z
		"/>
	<path class="st26" d="M102.87,6.32c0.61,0,1.22,0.04,1.82-0.02c0.21-0.02,0.38-0.3,0.58-0.46c2.12,0,4.24,0.01,6.36-0.01
		c0.35,0,0.84,0.17,0.84-0.47c0.61,0,1.22-0.04,1.82,0.02c0.21,0.02,0.38,0.3,0.58,0.46c0,0.32,0,0.64,0,0.96
		c-0.57,0.45-1.23,0.54-1.92,0.48c-1.99-0.2-3.97-0.4-5.99-0.6c-0.34,0.42-0.64,0.78-0.89,1.08c-1.14,0-2.17,0-3.2,0
		C102.87,7.28,102.87,6.8,102.87,6.32z"/>
	<path class="st18" d="M247.35,7.28c0.16-0.32,0.32-0.64,0.48-0.96c0.36-0.07,0.92,0.24,0.96-0.48c0.8-0.16,1.6-0.32,2.4-0.48
		c0.8,0,1.6,0,2.4,0c0.23,0.92,0.97,0.3,1.44,0.48c0,0.28,0,0.56,0,0.96c0.4,0,0.68,0,0.96,0c0,0.24,0,0.47,0,0.87
		c-0.66,0.03-1.33,0.07-2.01,0.09c-0.71,0.02-1.41,0-2.12,0c-1.02,0-2.05,0.05-3.06-0.02C248.31,7.71,247.84,7.44,247.35,7.28z"/>
	<path class="st3" d="M119.67,6.32c0.64,0,1.28,0,1.92,0c1.5,0.02,3.02-0.15,4.44,0.49c0.16,0.07,0.24,0.31,0.36,0.47
		c-0.21,0.16-0.41,0.46-0.62,0.46c-2.62,0.03-5.24,0.02-8.02,0.02c0-0.37,0-0.66,0-0.96c0.35-0.11,0.69-0.23,1.04-0.32
		C119.08,6.41,119.38,6.38,119.67,6.32z"/>
	<path class="st3" d="M63.03,4.4c-0.44,0-0.87,0-1.44,0c0-0.39,0-0.68,0-0.96c2.76,0,5.52,0,8.28,0.01c0.35,0,0.84-0.17,0.84,0.47
		c-0.2,0.16-0.4,0.46-0.6,0.46c-1.88,0.04-3.76,0.02-5.64,0.02C63.99,4.4,63.51,4.4,63.03,4.4z"/>
	<path class="st26" d="M263.67,5.84c0,0.16,0,0.32,0,0.48c-0.2,0.16-0.39,0.45-0.59,0.46c-1.24,0.04-2.48,0.02-3.73,0.02
		c-0.99,0-1.84-0.82-2.88-0.48c0-0.16,0-0.32,0-0.48c0.65-0.16,1.29-0.39,1.94-0.46c0.78-0.08,1.58-0.02,2.38-0.02
		c0.19,0.16,0.38,0.44,0.58,0.46C262.14,5.88,262.91,5.84,263.67,5.84z"/>
	<path class="st21" d="M256.47,5.84c0,0.16,0,0.32,0,0.48c-0.16,0.16-0.32,0.32-0.48,0.48c-0.28,0-0.56,0-0.96,0
		c0-0.4,0-0.68,0-0.96C255.51,5.84,255.99,5.84,256.47,5.84z"/>
	<path class="st16" d="M135.03,7.76c0.45,0,0.91-0.05,1.35,0.02c0.21,0.03,0.38,0.3,0.57,0.46c-0.77,0-1.54,0-2.87,0
		C134.74,7.91,134.88,7.84,135.03,7.76z"/>
	<path class="st16" d="M133.59,7.76c0.16-0.16,0.32-0.32,0.48-0.48C133.91,7.44,133.75,7.6,133.59,7.76z"/>
	<path class="st9" d="M265.59,2c1.44,0.16,2.88,0.44,4.32,0.44c1.28,0.01,2.56-0.29,3.84-0.44c0,0.48,0,0.96,0,1.44
		c-0.64,0-1.28,0-1.92,0c-1.92,0.4-3.85,0.79-5.76,1.19c0,0.27,0,0.5,0,0.73c-0.8,0-1.6,0-2.4,0c-0.2-0.16-0.38-0.39-0.61-0.46
		c-0.32-0.11-0.83,0.15-0.83-0.5c0-0.32,0-0.64,0-0.96c0.64,0,1.28,0,1.92,0c0.36,0.88,0.92,0.43,1.44,0.28
		C265.59,3.11,265.59,2.56,265.59,2z"/>
	<path class="st22" d="M266.07,5.36c0-0.23,0-0.47,0-0.73c1.91-0.39,3.84-0.79,5.76-1.19c0,0.23,0,0.47,0,0.7
		C270.06,5.25,268.11,5.5,266.07,5.36z"/>
	<path class="st22" d="M262.23,4.4c0,0.64,0.51,0.39,0.83,0.5c0.23,0.08,0.41,0.3,0.61,0.46c0,0.16,0,0.32,0,0.48
		c-0.77,0-1.54,0.03-2.3-0.02c-0.2-0.01-0.39-0.3-0.58-0.46c0-0.32,0-0.64,0-0.96C261.27,4.4,261.75,4.4,262.23,4.4z"/>
	<path class="st7" d="M255.99,2c1.92,0,3.84,0,5.76,0c0,0.48,0,0.96,0,1.44c-0.48,0-0.96,0-1.44,0c-0.06-0.14-0.1-0.38-0.17-0.39
		c-0.91-0.12-1.82-0.16-2.71,0.02c0,0.38,0,0.62,0,0.85c-1.12,0-2.24,0-3.36,0c-0.23-0.92-0.97-0.3-1.44-0.48c0-0.48,0-0.96,0-1.44
		C253.75,2,254.87,2,255.99,2z"/>
	<path class="st7" d="M245.91,3.92c0-0.32,0-0.64,0-0.96c0.8,0,1.6,0,2.4,0c0.77,0,1.54-0.03,2.3,0.02c0.2,0.01,0.39,0.3,0.58,0.46
		c0,0.16,0,0.32,0,0.48c-0.71,0-1.43,0-2.21,0c-0.09,0.25-0.18,0.53-0.33,0.96c-0.4,0-0.85,0-1.31,0c0-0.28,0-0.57,0-0.96
		C246.79,3.92,246.35,3.92,245.91,3.92z"/>
	<path class="st13" d="M251.19,3.44C251,3.28,250.81,3,250.61,2.99c-0.76-0.05-1.53-0.02-2.3-0.02c0-0.23,0-0.47,0-0.88
		c0.73-0.03,1.47-0.06,2.22-0.08c0.7-0.01,1.4,0,2.1,0c0,0.48,0,0.96,0,1.44C252.15,3.44,251.67,3.44,251.19,3.44z"/>
	<path class="st6" d="M261.75,3.44c0-0.48,0-0.96,0-1.44c0.8,0,1.6,0,2.4,0c0,0.48,0,0.96,0,1.44c-0.64,0-1.28,0-1.92,0
		C262.07,3.44,261.91,3.44,261.75,3.44z"/>
	<path class="st19" d="M264.15,3.44c0-0.48,0-0.96,0-1.44c0.48,0,0.96,0,1.44,0c0,0.55,0,1.11,0,1.72
		C265.07,3.87,264.51,4.33,264.15,3.44z"/>
	<path class="st3" d="M59.67,3.44c-0.2,0.16-0.4,0.45-0.61,0.46c-1.18,0.04-2.36,0.02-3.71,0.02c0-0.37,0-0.66,0-0.96
		c1.24,0,2.49-0.02,3.73,0.02C59.28,2.99,59.47,3.28,59.67,3.44z"/>
	<path class="st6" d="M251.19,3.44c0.48,0,0.96,0,1.44,0c0.47,0.18,1.21-0.44,1.44,0.48c-0.16,0.48-0.32,0.96-0.48,1.44
		c-0.8,0-1.6,0-2.4,0c0-0.48,0-0.96,0-1.44C251.19,3.76,251.19,3.6,251.19,3.44z"/>
	<path class="st26" d="M98.55,5.36c1.21-0.01,2.43-0.03,3.36,0.96c0,0.32,0,0.64,0,0.96c-0.48,0-0.96,0-1.44,0
		c-0.19-0.16-0.36-0.42-0.57-0.46C99.46,6.76,99,6.8,98.55,6.8C98.55,6.32,98.55,5.84,98.55,5.36z"/>
	<path class="st3" d="M101.91,7.28c0-0.32,0-0.64,0-0.96c0.32,0,0.64,0,0.96,0c0,0.48,0,0.96,0,1.44
		C102.51,7.69,101.95,8,101.91,7.28z"/>
	<path class="st9" d="M253.59,5.36c0.16-0.48,0.32-0.96,0.48-1.44c1.12,0,2.24,0,3.36,0c0.19,0.16,0.38,0.44,0.58,0.46
		c0.76,0.05,1.53,0.02,2.3,0.02c0.16,0,0.32,0,0.48,0c0,0.32,0,0.64,0,0.96c-0.79,0-1.59-0.06-2.38,0.02
		c-0.66,0.07-1.3,0.3-1.94,0.46c-0.48,0-0.96,0-1.44,0C254.56,5.66,253.82,6.29,253.59,5.36z"/>
	<path class="st19" d="M260.79,4.4c-0.16,0-0.32,0-0.48,0c0-0.32,0-0.64,0-0.96c0.48,0,0.96,0,1.44,0c0.16,0,0.32,0,0.48,0
		c0,0.32,0,0.64,0,0.96C261.75,4.4,261.27,4.4,260.79,4.4z"/>
	<path class="st6" d="M260.31,3.44c0,0.32,0,0.64,0,0.96c-0.77,0-1.54,0.03-2.3-0.02c-0.2-0.01-0.39-0.3-0.58-0.46
		c0-0.24,0-0.48,0-0.85c0.89-0.18,1.8-0.14,2.71-0.02C260.22,3.06,260.26,3.31,260.31,3.44z"/>
</g>
</svg>
